<svg width="200" height="200" viewBox="0 0 200 200" fill="none" xmlns="http://www.w3.org/2000/svg">
<g clip-path="url(#clip0_1061_3715)">
<path d="M49.085 25.591L61.5289 154.815L167.218 79.4262L49.085 25.591Z" stroke="url(#paint0_linear_1061_3715)"/>
<line x1="72" y1="121.5" x2="200" y2="121.5" stroke="url(#paint1_linear_1061_3715)"/>
<g clip-path="url(#clip1_1061_3715)">
<path d="M82.7854 89.3308V95.767H81.2271V91.4136H80.9724L80.2357 93.7298H78.5778L77.84 91.4136H77.5854V95.767H76.0272V89.3308H78.559L79.2789 91.6657H79.5336L80.2535 89.3308H82.7854Z" fill="#292929"/>
<path d="M87.3402 93.207V94.2889H90.7189V95.767H85.6467V89.3308H90.6371V90.8099H87.3402V91.7652H89.8533V93.207H87.3402Z" fill="#292929"/>
<path d="M99.0211 92.0896V92.91C99.0211 94.4245 98.1837 95.8867 96.0983 95.8867C94.0128 95.8867 92.8831 94.5528 92.8831 92.5528C92.8831 90.578 94.0213 89.218 96.0983 89.218C97.6546 89.218 98.6292 90.0655 98.866 91.2822H97.118C96.9995 90.8943 96.6349 90.6952 96.0889 90.6952C95.1416 90.6952 94.6133 91.4254 94.6133 92.5556C94.6133 93.6998 95.1416 94.4393 96.117 94.4393C96.8821 94.4393 97.32 94.0059 97.3463 93.4208H96.0889V92.0896H99.0211Z" fill="#292929"/>
<path d="M107.323 95.767H105.636L105.161 94.1038H102.977L102.512 95.7716H100.864L102.811 89.3308H105.371L107.323 95.767ZM103.342 92.7838H104.785L104.265 90.9169H103.865L103.342 92.7838Z" fill="#292929"/>
<path d="M81.8853 100.574V101.394C81.8853 102.908 81.0479 104.37 78.9625 104.37C76.877 104.37 75.7446 103.035 75.7446 101.034C75.7446 99.0599 76.8836 97.699 78.9596 97.699C80.5169 97.699 81.4906 98.5464 81.7283 99.7631H79.9822C79.8637 99.3752 79.4991 99.1771 78.9531 99.1771C78.0057 99.1771 77.4776 99.9073 77.4776 101.038C77.4776 102.183 78.0057 102.921 78.9812 102.921C79.7463 102.921 80.1842 102.489 80.2105 101.898H78.9531V100.574H81.8853Z" fill="#292929"/>
<path d="M87.6711 97.8159C89.1749 97.8159 90.0479 98.5908 90.0479 99.8977C90.0479 100.718 89.7199 101.314 89.1006 101.665L90.0404 104.252H88.3488L87.5377 101.999H86.1863V104.252H84.4946V97.8159H87.6711ZM87.4437 100.601C88.0715 100.601 88.3168 100.357 88.3168 99.934C88.3168 99.5108 88.0715 99.2764 87.4437 99.2764H86.1863V100.601H87.4437Z" fill="#292929"/>
<path d="M98.6277 104.251H96.9426L96.4727 102.584H94.2839L93.8196 104.251H92.1712L94.1203 97.8159H96.6795L98.6277 104.251ZM94.6476 101.267H96.0958L95.5742 99.4066H95.1739L94.6476 101.267Z" fill="#292929"/>
<path d="M106.69 97.8159V104.251H104.659L102.638 100.511H102.383V104.251H100.88V97.8159H102.911L104.933 101.556H105.188V97.8159H106.69Z" fill="#292929"/>
<path d="M114.519 99.294H112.571V104.251H110.877V99.294H108.938V97.8159H114.519V99.294Z" fill="#292929"/>
<path d="M120.177 99.6724C120.077 99.2399 119.731 99.0957 119.221 99.0957C118.774 99.0957 118.392 99.2669 118.392 99.6538C118.392 99.9692 118.629 100.086 119.021 100.15L120.213 100.336C121.27 100.507 122.07 101.08 122.07 102.265C122.07 103.374 121.206 104.364 119.357 104.364C117.618 104.364 116.625 103.553 116.489 102.175H118.223C118.322 102.797 118.86 102.967 119.433 102.967C120.007 102.967 120.373 102.724 120.373 102.364C120.373 101.967 120.091 101.831 119.621 101.751L118.4 101.552C117.225 101.366 116.679 100.697 116.679 99.7227C116.679 98.6139 117.59 97.6948 119.238 97.6948C120.696 97.6948 121.788 98.425 121.906 99.6687L120.177 99.6724Z" fill="#292929"/>
<path d="M65.9476 92.8941C65.9203 93.161 65.8987 93.3824 65.8818 93.695C65.6496 97.9498 67.6787 102.838 69.2144 104.046C70.3571 104.944 69.9765 103.037 69.7265 102.487C68.439 99.6605 67.2698 97.2782 66.2267 93.7704C66.1242 93.4252 66.0359 93.1852 65.9476 92.8941ZM65.7051 87.3732C65.8047 86.9528 65.9106 86.5335 66.0227 86.1155C66.9306 82.7854 68.594 79.4729 69.4822 76.1399C69.642 75.5446 70.4633 71.7967 69.1062 72.0925C68.1664 72.2981 66.9964 74.4181 66.3178 76.3185C65.0209 79.9463 65.05 83.3631 65.4833 86.1602C65.5516 86.5639 65.6255 86.9677 65.7051 87.3714V87.3732ZM65.2182 90.2811C64.1901 85.816 63.8424 80.1185 65.3123 75.7771C66.3206 72.8004 68.6495 69.3391 70.9906 68.4135C73.5356 67.4061 74.4369 72.0841 72.9914 75.8813C71.0047 81.098 67.4625 84.9426 66.3385 90.402C67.2877 94.6131 69.0423 96.987 71.718 101.22C75.1013 106.576 71.5356 107.654 70.2613 106.863C67.9193 105.41 66.8779 103.056 66.1016 100.766C65.035 97.6187 64.8245 93.5136 65.2182 90.2811Z" fill="#292929"/>
<path d="M123.726 69.3792C110.867 69.3792 106.073 74.9447 106.073 87.1407V87.2338H111.489C111.522 78.1064 114.906 74.2153 123.8 74.2153C132.665 74.2153 136.306 78.0841 136.306 87.3659C136.306 96.4327 132.693 100.305 123.901 100.334V104.367C136.536 104.323 141.674 99.1341 141.674 87.0905C141.669 74.9419 136.485 69.3792 123.726 69.3792Z" fill="#FF002D"/>
<path d="M97.1209 71.7106L92.7038 76.0827L96.557 79.8966L98.7627 77.7133V87.2351H104.214V71.5935C104.214 71.3963 104.175 71.2011 104.099 71.019C104.022 70.8368 103.911 70.6713 103.77 70.5319C103.629 70.3924 103.462 70.2818 103.278 70.2064C103.094 70.1309 102.897 70.092 102.698 70.092H101.076C99.5928 70.0914 98.1703 70.6736 97.1209 71.7106Z" fill="#FF002D"/>
</g>
</g>
<defs>
<linearGradient id="paint0_linear_1061_3715" x1="54.9233" y1="89.29" x2="141.444" y2="90.4958" gradientUnits="userSpaceOnUse">
<stop stop-color="#292929"/>
<stop offset="1" stop-color="white" stop-opacity="0"/>
</linearGradient>
<linearGradient id="paint1_linear_1061_3715" x1="72" y1="122" x2="200" y2="122" gradientUnits="userSpaceOnUse">
<stop stop-color="#292929"/>
<stop offset="0.921875" stop-color="white" stop-opacity="0"/>
</linearGradient>
<clipPath id="clip0_1061_3715">
<rect width="200" height="200" fill="white"/>
</clipPath>
<clipPath id="clip1_1061_3715">
<rect width="96" height="39" fill="white" transform="translate(55 68)"/>
</clipPath>
</defs>
</svg>
