 <svg display="none" 
    xmlns="http://www.w3.org/2000/svg">
    <symbol viewBox="0 0 734 156" id="titleSvg">
    <g>
<path d="M138.45 124V34.4H179.41C187.602 34.4 194.642 35.7227 200.53 38.368C206.503 41.0133 211.111 44.8533 214.354 49.888C217.597 54.8373 219.218 60.7253 219.218 67.552C219.218 74.2933 217.597 80.1387 214.354 85.088C211.111 90.0373 206.503 93.8773 200.53 96.608C194.642 99.2533 187.602 100.576 179.41 100.576H152.53L163.794 89.568V124H138.45ZM163.794 92.256L152.53 80.608H177.874C183.165 80.608 187.09 79.456 189.65 77.152C192.295 74.848 193.618 71.648 193.618 67.552C193.618 63.3707 192.295 60.128 189.65 57.824C187.09 55.52 183.165 54.368 177.874 54.368H152.53L163.794 42.72V92.256ZM434.173 125.792C427.09 125.792 420.52 124.683 414.461 122.464C408.488 120.16 403.282 116.917 398.845 112.736C394.493 108.555 391.08 103.648 388.605 98.016C386.13 92.2987 384.893 86.0267 384.893 79.2C384.893 72.3733 386.13 66.144 388.605 60.512C391.08 54.7947 394.493 49.8453 398.845 45.664C403.282 41.4827 408.488 38.2827 414.461 36.064C420.52 33.76 427.09 32.608 434.173 32.608C442.45 32.608 449.832 34.0587 456.317 36.96C462.888 39.8613 468.349 44.0427 472.701 49.504L456.573 64.096C453.672 60.6827 450.472 58.08 446.973 56.288C443.56 54.496 439.72 53.6 435.453 53.6C431.784 53.6 428.413 54.1973 425.341 55.392C422.269 56.5867 419.624 58.336 417.405 60.64C415.272 62.8587 413.565 65.5467 412.285 68.704C411.09 71.8613 410.493 75.36 410.493 79.2C410.493 83.04 411.09 86.5387 412.285 89.696C413.565 92.8533 415.272 95.584 417.405 97.888C419.624 100.107 422.269 101.813 425.341 103.008C428.413 104.203 431.784 104.8 435.453 104.8C439.72 104.8 443.56 103.904 446.973 102.112C450.472 100.32 453.672 97.7173 456.573 94.304L472.701 108.896C468.349 114.272 462.888 118.453 456.317 121.44C449.832 124.341 442.45 125.792 434.173 125.792ZM528.84 124V48.864L534.472 54.496H501.32V34.4H581.192V54.496H548.168L553.8 48.864V124H528.84Z" fill="white"/>
<path d="M9.6 124H8.6V125H9.6V124ZM9.6 34.4V33.4H8.6V34.4H9.6ZM93.696 34.4H94.696V33.4H93.696V34.4ZM93.696 124V125H94.696V124H93.696ZM68.608 124H67.608V125H68.608V124ZM68.608 48.864L69.3151 48.1569L67.608 46.4498V48.864H68.608ZM74.24 54.496V55.496H76.6542L74.9471 53.7889L74.24 54.496ZM29.056 54.496L28.3408 53.7971L26.6805 55.496H29.056V54.496ZM34.56 48.864H35.56V46.41L33.8448 48.1651L34.56 48.864ZM34.56 124V125H35.56V124H34.56ZM10.6 124V34.4H8.6V124H10.6ZM9.6 35.4H93.696V33.4H9.6V35.4ZM92.696 34.4V124H94.696V34.4H92.696ZM93.696 123H68.608V125H93.696V123ZM69.608 124V48.864H67.608V124H69.608ZM67.9009 49.5711L73.5329 55.2031L74.9471 53.7889L69.3151 48.1569L67.9009 49.5711ZM74.24 53.496H29.056V55.496H74.24V53.496ZM29.7712 55.1949L35.2752 49.5629L33.8448 48.1651L28.3408 53.7971L29.7712 55.1949ZM33.56 48.864V124H35.56V48.864H33.56ZM34.56 123H9.6V125H34.56V123ZM138.45 124H137.45V125H138.45V124ZM138.45 34.4V33.4H137.45V34.4H138.45ZM200.53 38.368L200.12 39.2802L200.125 39.2823L200.53 38.368ZM214.354 49.888L213.513 50.4295L213.518 50.436L214.354 49.888ZM214.354 85.088L213.518 84.54L214.354 85.088ZM200.53 96.608L200.94 97.5202L200.946 97.5175L200.53 96.608ZM152.53 100.576L151.831 99.8608L150.076 101.576H152.53V100.576ZM163.794 89.568H164.794V87.1925L163.095 88.8528L163.794 89.568ZM163.794 124V125H164.794V124H163.794ZM163.794 92.256L163.075 92.9512L164.794 94.7286V92.256H163.794ZM152.53 80.608V79.608H150.172L151.811 81.3032L152.53 80.608ZM189.65 77.152L188.993 76.3979L188.987 76.4033L188.981 76.4087L189.65 77.152ZM189.65 57.824L188.981 58.5673L188.987 58.5727L188.993 58.5781L189.65 57.824ZM152.53 54.368L151.811 53.6728L150.172 55.368H152.53V54.368ZM163.794 42.72H164.794V40.2474L163.075 42.0248L163.794 42.72ZM139.45 124V34.4H137.45V124H139.45ZM138.45 35.4H179.41V33.4H138.45V35.4ZM179.41 35.4C187.497 35.4 194.391 36.7061 200.12 39.2802L200.94 37.4558C194.893 34.7392 187.707 33.4 179.41 33.4V35.4ZM200.125 39.2823C205.937 41.8561 210.386 45.5739 213.513 50.4295L215.195 49.3465C211.837 44.1328 207.07 40.1706 200.935 37.4536L200.125 39.2823ZM213.518 50.436C216.638 55.1986 218.218 60.8893 218.218 67.552H220.218C220.218 60.5613 218.555 54.4761 215.19 49.34L213.518 50.436ZM218.218 67.552C218.218 74.1265 216.639 79.7754 213.518 84.54L215.19 85.636C218.554 80.502 220.218 74.4601 220.218 67.552H218.218ZM213.518 84.54C210.389 89.3146 205.936 93.0374 200.114 95.6985L200.946 97.5175C207.071 94.7173 211.833 90.7601 215.19 85.636L213.518 84.54ZM200.12 95.6958C194.391 98.2699 187.497 99.576 179.41 99.576V101.576C187.707 101.576 194.893 100.237 200.94 97.5202L200.12 95.6958ZM179.41 99.576H152.53V101.576H179.41V99.576ZM153.229 101.291L164.493 90.2832L163.095 88.8528L151.831 99.8608L153.229 101.291ZM162.794 89.568V124H164.794V89.568H162.794ZM163.794 123H138.45V125H163.794V123ZM164.513 91.5608L153.249 79.9128L151.811 81.3032L163.075 92.9512L164.513 91.5608ZM152.53 81.608H177.874V79.608H152.53V81.608ZM177.874 81.608C183.284 81.608 187.499 80.4336 190.319 77.8953L188.981 76.4087C186.681 78.4783 183.045 79.608 177.874 79.608V81.608ZM190.307 77.9061C193.208 75.3796 194.618 71.8836 194.618 67.552H192.618C192.618 71.4124 191.383 74.3164 188.993 76.3979L190.307 77.9061ZM194.618 67.552C194.618 63.1424 193.212 59.6005 190.307 57.0699L188.993 58.5781C191.378 60.6555 192.618 63.5989 192.618 67.552H194.618ZM190.319 57.0807C187.499 54.5423 183.284 53.368 177.874 53.368V55.368C183.045 55.368 186.681 56.4977 188.981 58.5673L190.319 57.0807ZM177.874 53.368H152.53V55.368H177.874V53.368ZM153.249 55.0632L164.513 43.4152L163.075 42.0248L151.811 53.6728L153.249 55.0632ZM162.794 42.72V92.256H164.794V42.72H162.794ZM281.742 122.336L281.387 123.271L281.742 122.336ZM265.87 112.608L265.177 113.329L265.184 113.336L265.191 113.342L265.87 112.608ZM255.502 97.76L254.586 98.1623L255.502 97.76ZM255.502 60.64L254.586 60.2377L255.502 60.64ZM265.87 45.92L266.556 46.6478L266.556 46.6474L265.87 45.92ZM281.742 36.064L281.387 35.1293L281.742 36.064ZM321.422 36.064L321.062 36.997L321.067 36.9987L321.422 36.064ZM337.166 45.92L336.473 46.6409L336.48 46.6478L337.166 45.92ZM347.534 60.64L346.618 61.0423L346.624 61.0538L347.534 60.64ZM347.534 97.888L346.621 97.4793L346.618 97.4857L347.534 97.888ZM337.166 112.608L337.852 113.336L337.166 112.608ZM321.422 122.336L321.067 121.401L321.062 121.403L321.422 122.336ZM311.054 103.008L310.683 102.079L310.673 102.083L311.054 103.008ZM318.734 97.888L318.014 97.1944L318.013 97.1949L318.734 97.888ZM323.854 89.696L322.927 89.3203L322.923 89.3312L322.919 89.3421L323.854 89.696ZM323.854 68.704L322.919 69.0579L322.925 69.0734L322.931 69.0886L323.854 68.704ZM318.734 60.64L318 61.3194L318.013 61.3335L318.027 61.3471L318.734 60.64ZM311.054 55.392L310.673 56.3167L310.683 56.3205L311.054 55.392ZM291.982 55.392L291.611 54.4635L291.601 54.4673L291.982 55.392ZM284.302 60.64L283.582 59.9464L283.581 59.9469L284.302 60.64ZM279.182 68.704L278.255 68.3283L278.253 68.3349L278.25 68.3416L279.182 68.704ZM279.182 89.696L278.247 90.0499L278.251 90.0608L278.255 90.0717L279.182 89.696ZM284.302 97.888L283.568 98.5674L283.581 98.5815L283.595 98.5951L284.302 97.888ZM291.982 103.008L291.601 103.933L291.611 103.936L291.982 103.008ZM301.582 124.792C294.523 124.792 288.031 123.658 282.097 121.401L281.387 123.271C287.57 125.622 294.305 126.792 301.582 126.792V124.792ZM282.097 121.401C276.152 119.14 270.973 115.964 266.549 111.874L265.191 113.342C269.813 117.615 275.215 120.924 281.387 123.271L282.097 121.401ZM266.563 111.887C262.22 107.711 258.84 102.87 256.418 97.3577L254.586 98.1623C257.114 103.914 260.645 108.972 265.177 113.329L266.563 111.887ZM256.418 97.3577C254.004 91.8642 252.79 85.8162 252.79 79.2H250.79C250.79 86.0664 252.051 92.3918 254.586 98.1623L256.418 97.3577ZM252.79 79.2C252.79 72.5838 254.004 66.5358 256.418 61.0423L254.586 60.2377C252.051 66.0082 250.79 72.3335 250.79 79.2H252.79ZM256.418 61.0423C258.839 55.5319 262.217 50.7363 266.556 46.6478L265.184 45.1922C260.648 49.4664 257.115 54.484 254.586 60.2377L256.418 61.0423ZM266.556 46.6474C270.979 42.4747 276.156 39.258 282.097 36.9987L281.387 35.1293C275.21 37.478 269.806 40.832 265.184 45.1926L266.556 46.6474ZM282.097 36.9987C288.031 34.7422 294.523 33.608 301.582 33.608V31.608C294.305 31.608 287.57 32.7778 281.387 35.1293L282.097 36.9987ZM301.582 33.608C308.728 33.608 315.218 34.7428 321.062 36.997L321.782 35.131C315.68 32.7772 308.942 31.608 301.582 31.608V33.608ZM321.067 36.9987C327.006 39.2574 332.138 42.4723 336.473 46.6408L337.859 45.1992C333.32 40.8343 327.955 37.4786 321.777 35.1293L321.067 36.9987ZM336.48 46.6478C340.819 50.7363 344.197 55.5319 346.618 61.0423L348.45 60.2377C345.921 54.484 342.388 49.4664 337.852 45.1922L336.48 46.6478ZM346.624 61.0538C349.119 66.5445 350.374 72.5885 350.374 79.2H352.374C352.374 72.3289 351.069 65.9995 348.444 60.2262L346.624 61.0538ZM350.374 79.2C350.374 85.8114 349.119 91.9001 346.621 97.4793L348.447 98.2967C351.069 92.4412 352.374 86.0713 352.374 79.2H350.374ZM346.618 97.4857C344.197 102.996 340.819 107.792 336.48 111.88L337.852 113.336C342.388 109.062 345.921 104.044 348.45 98.2903L346.618 97.4857ZM336.48 111.88C332.144 115.966 327.01 119.141 321.067 121.401L321.777 123.271C327.951 120.923 333.313 117.613 337.852 113.336L336.48 111.88ZM321.062 121.403C315.218 123.657 308.728 124.792 301.582 124.792V126.792C308.942 126.792 315.68 125.623 321.782 123.269L321.062 121.403ZM301.582 105.8C305.114 105.8 308.402 105.181 311.435 103.933L310.673 102.083C307.903 103.224 304.876 103.8 301.582 103.8V105.8ZM311.425 103.936C314.538 102.691 317.219 100.907 319.455 98.5811L318.013 97.1949C315.983 99.3066 313.543 100.935 310.683 102.08L311.425 103.936ZM319.454 98.5816C321.772 96.1748 323.549 93.3267 324.789 90.0499L322.919 89.3421C321.769 92.3799 320.133 94.9932 318.014 97.1944L319.454 98.5816ZM324.781 90.0717C326.115 86.7808 326.774 83.1525 326.774 79.2H324.774C324.774 82.9275 324.153 86.2965 322.927 89.3203L324.781 90.0717ZM326.774 79.2C326.774 75.166 326.116 71.5331 324.777 68.3194L322.931 69.0886C324.152 72.0189 324.774 75.3834 324.774 79.2H326.774ZM324.789 68.3501C323.548 65.0704 321.767 62.2592 319.441 59.9329L318.027 61.3471C320.138 63.4581 321.77 66.0229 322.919 69.0579L324.789 68.3501ZM319.468 59.9606C317.231 57.545 314.546 55.7119 311.425 54.4635L310.683 56.3205C313.535 57.4614 315.97 59.127 318 61.3194L319.468 59.9606ZM311.435 54.4673C308.402 53.2187 305.114 52.6 301.582 52.6V54.6C304.876 54.6 307.903 55.176 310.673 56.3167L311.435 54.4673ZM301.582 52.6C298.049 52.6 294.722 53.2188 291.611 54.4635L292.353 56.3205C295.215 55.1759 298.288 54.6 301.582 54.6V52.6ZM291.601 54.4673C288.569 55.7157 285.894 57.5447 283.582 59.9464L285.022 61.3336C287.147 59.1273 289.592 57.4576 292.363 56.3167L291.601 54.4673ZM283.581 59.9469C281.351 62.2666 279.578 65.0656 278.255 68.3283L280.109 69.0797C281.346 66.0277 282.987 63.4507 285.023 61.3331L283.581 59.9469ZM278.25 68.3416C277.003 71.5489 276.39 75.1738 276.39 79.2H278.39C278.39 75.3755 278.972 72.0031 280.114 69.0664L278.25 68.3416ZM276.39 79.2C276.39 83.1444 277.004 86.765 278.247 90.0499L280.117 89.3421C278.971 86.3123 278.39 82.9355 278.39 79.2H276.39ZM278.255 90.0717C279.577 93.3316 281.346 96.1674 283.568 98.5674L285.036 97.2086C282.991 95.0006 281.347 92.3751 280.109 89.3203L278.255 90.0717ZM283.595 98.5951C285.907 100.907 288.578 102.688 291.601 103.933L292.363 102.083C289.583 100.939 287.134 99.3062 285.009 97.1809L283.595 98.5951ZM291.611 103.936C294.722 105.181 298.049 105.8 301.582 105.8V103.8C298.288 103.8 295.215 103.224 292.353 102.08L291.611 103.936ZM414.461 122.464L414.101 123.397L414.109 123.4L414.117 123.403L414.461 122.464ZM398.845 112.736L398.152 113.457L398.159 113.464L398.845 112.736ZM388.605 98.016L387.687 98.4132L387.689 98.4183L388.605 98.016ZM388.605 60.512L389.521 60.9143L389.523 60.9092L388.605 60.512ZM398.845 45.664L398.159 44.9362L398.152 44.9429L398.845 45.664ZM414.461 36.064L414.809 37.0014L414.816 36.9987L414.461 36.064ZM456.317 36.96L455.909 37.8728L455.913 37.8748L456.317 36.96ZM472.701 49.504L473.372 50.2455L474.068 49.6154L473.483 48.8808L472.701 49.504ZM456.573 64.096L455.811 64.7436L456.479 65.5295L457.244 64.8375L456.573 64.096ZM446.973 56.288L446.508 57.1734L446.517 57.178L446.973 56.288ZM425.341 55.392L424.979 54.46L425.341 55.392ZM417.405 60.64L416.685 59.9464L416.684 59.9469L417.405 60.64ZM412.285 68.704L411.358 68.3283L411.354 68.3391L411.35 68.3501L412.285 68.704ZM412.285 89.696L411.35 90.0499L411.354 90.0608L411.358 90.0717L412.285 89.696ZM417.405 97.888L416.671 98.5674L416.684 98.5815L416.698 98.5951L417.405 97.888ZM425.341 103.008L424.979 103.94L425.341 103.008ZM446.973 102.112L446.517 101.222L446.508 101.227L446.973 102.112ZM456.573 94.304L457.244 93.5625L456.479 92.8705L455.811 93.6563L456.573 94.304ZM472.701 108.896L473.478 109.525L474.074 108.79L473.372 108.154L472.701 108.896ZM456.317 121.44L456.725 122.353L456.731 122.35L456.317 121.44ZM434.173 124.792C427.196 124.792 420.743 123.7 414.805 121.525L414.117 123.403C420.296 125.666 426.984 126.792 434.173 126.792V124.792ZM414.821 121.531C408.962 119.271 403.869 116.096 399.531 112.008L398.159 113.464C402.696 117.738 408.013 121.049 414.101 123.397L414.821 121.531ZM399.538 112.015C395.282 107.926 391.944 103.128 389.521 97.6137L387.689 98.4183C390.216 104.168 393.704 109.183 398.152 113.457L399.538 112.015ZM389.523 97.6188C387.107 92.0384 385.893 85.9032 385.893 79.2H383.893C383.893 86.1501 385.153 92.5589 387.687 98.4132L389.523 97.6188ZM385.893 79.2C385.893 72.4966 387.107 66.4062 389.521 60.9143L387.689 60.1097C385.153 65.8818 383.893 72.2501 383.893 79.2H385.893ZM389.523 60.9092C391.946 55.3097 395.285 50.4715 399.538 46.3851L398.152 44.9429C393.701 49.2192 390.213 54.2796 387.687 60.1148L389.523 60.9092ZM399.531 46.3918C403.866 42.3063 408.956 39.1756 414.809 37.0014L414.113 35.1266C408.02 37.3897 402.698 40.659 398.159 44.9362L399.531 46.3918ZM414.816 36.9987C420.751 34.7417 427.201 33.608 434.173 33.608V31.608C426.98 31.608 420.288 32.7783 414.106 35.1293L414.816 36.9987ZM434.173 33.608C442.333 33.608 449.571 35.0377 455.909 37.8728L456.725 36.0472C450.092 33.0797 442.568 31.608 434.173 31.608V33.608ZM455.913 37.8748C462.34 40.7128 467.671 44.7959 471.919 50.1272L473.483 48.8808C469.027 43.2895 463.435 39.0098 456.721 36.0452L455.913 37.8748ZM472.03 48.7625L455.902 63.3545L457.244 64.8375L473.372 50.2455L472.03 48.7625ZM457.335 63.4483C454.36 59.9488 451.06 57.2576 447.429 55.398L446.517 57.178C449.884 58.9023 452.983 61.4165 455.811 64.7436L457.335 63.4483ZM447.438 55.4026C443.866 53.5276 439.864 52.6 435.453 52.6V54.6C439.575 54.6 443.253 55.4644 446.508 57.1734L447.438 55.4026ZM435.453 52.6C431.674 52.6 428.178 53.2156 424.979 54.46L425.703 56.324C428.648 55.1791 431.894 54.6 435.453 54.6V52.6ZM424.979 54.46C421.776 55.7056 419.007 57.5347 416.685 59.9464L418.125 61.3336C420.24 59.1373 422.762 57.4678 425.703 56.324L424.979 54.46ZM416.684 59.9469C414.454 62.2666 412.681 65.0656 411.358 68.3283L413.212 69.0797C414.449 66.0277 416.09 63.4507 418.126 61.3331L416.684 59.9469ZM411.35 68.3501C410.107 71.635 409.493 75.2555 409.493 79.2H411.493C411.493 75.4644 412.074 72.0877 413.22 69.0579L411.35 68.3501ZM409.493 79.2C409.493 83.1444 410.107 86.765 411.35 90.0499L413.22 89.3421C412.074 86.3123 411.493 82.9355 411.493 79.2H409.493ZM411.358 90.0717C412.68 93.3316 414.449 96.1674 416.671 98.5674L418.139 97.2086C416.094 95.0006 414.45 92.3751 413.212 89.3203L411.358 90.0717ZM416.698 98.5951C419.02 100.917 421.784 102.698 424.979 103.94L425.703 102.076C422.754 100.929 420.228 99.2966 418.112 97.1809L416.698 98.5951ZM424.979 103.94C428.178 105.184 431.674 105.8 435.453 105.8V103.8C431.894 103.8 428.648 103.221 425.703 102.076L424.979 103.94ZM435.453 105.8C439.864 105.8 443.866 104.872 447.438 102.997L446.508 101.227C443.253 102.936 439.575 103.8 435.453 103.8V105.8ZM447.429 103.002C451.06 101.142 454.36 98.4512 457.335 94.9516L455.811 93.6563C452.983 96.9835 449.884 99.4977 446.517 101.222L447.429 103.002ZM455.902 95.0455L472.03 109.638L473.372 108.154L457.244 93.5625L455.902 95.0455ZM471.924 108.267C467.674 113.517 462.339 117.604 455.903 120.53L456.731 122.35C463.436 119.302 469.024 115.027 473.478 109.525L471.924 108.267ZM455.909 120.527C449.571 123.362 442.333 124.792 434.173 124.792V126.792C442.568 126.792 450.092 125.32 456.725 122.353L455.909 120.527ZM528.84 124H527.84V125H528.84V124ZM528.84 48.864L529.547 48.1569L527.84 46.4498V48.864H528.84ZM534.472 54.496V55.496H536.886L535.179 53.7889L534.472 54.496ZM501.32 54.496H500.32V55.496H501.32V54.496ZM501.32 34.4V33.4H500.32V34.4H501.32ZM581.192 34.4H582.192V33.4H581.192V34.4ZM581.192 54.496V55.496H582.192V54.496H581.192ZM548.168 54.496L547.461 53.7889L545.754 55.496H548.168V54.496ZM553.8 48.864H554.8V46.4498L553.093 48.1569L553.8 48.864ZM553.8 124V125H554.8V124H553.8ZM529.84 124V48.864H527.84V124H529.84ZM528.133 49.5711L533.765 55.2031L535.179 53.7889L529.547 48.1569L528.133 49.5711ZM534.472 53.496H501.32V55.496H534.472V53.496ZM502.32 54.496V34.4H500.32V54.496H502.32ZM501.32 35.4H581.192V33.4H501.32V35.4ZM580.192 34.4V54.496H582.192V34.4H580.192ZM581.192 53.496H548.168V55.496H581.192V53.496ZM548.875 55.2031L554.507 49.5711L553.093 48.1569L547.461 53.7889L548.875 55.2031ZM552.8 48.864V124H554.8V48.864H552.8ZM553.8 123H528.84V125H553.8V123ZM642.667 122.336L642.312 123.271L642.667 122.336ZM626.795 112.608L626.102 113.329L626.109 113.336L626.116 113.342L626.795 112.608ZM616.427 97.76L615.511 98.1623L616.427 97.76ZM616.427 60.64L615.511 60.2377L616.427 60.64ZM626.795 45.92L627.481 46.6478L627.481 46.6474L626.795 45.92ZM642.667 36.064L642.312 35.1293L642.667 36.064ZM682.347 36.064L681.987 36.997L681.992 36.9987L682.347 36.064ZM698.091 45.92L697.398 46.6409L697.405 46.6478L698.091 45.92ZM708.459 60.64L707.543 61.0423L707.549 61.0538L708.459 60.64ZM708.459 97.888L707.546 97.4793L707.544 97.4857L708.459 97.888ZM698.091 112.608L698.777 113.336L698.091 112.608ZM682.347 122.336L681.992 121.401L681.987 121.403L682.347 122.336ZM671.979 103.008L671.608 102.079L671.598 102.083L671.979 103.008ZM679.659 97.888L678.939 97.1944L678.938 97.1949L679.659 97.888ZM684.779 89.696L683.852 89.3203L683.848 89.3312L683.844 89.3421L684.779 89.696ZM684.779 68.704L683.844 69.0579L683.85 69.0734L683.856 69.0886L684.779 68.704ZM679.659 60.64L678.925 61.3194L678.938 61.3335L678.952 61.3471L679.659 60.64ZM671.979 55.392L671.598 56.3167L671.608 56.3205L671.979 55.392ZM652.907 55.392L652.536 54.4635L652.526 54.4673L652.907 55.392ZM645.227 60.64L644.507 59.9464L644.506 59.9469L645.227 60.64ZM640.107 68.704L639.18 68.3283L639.178 68.3349L639.175 68.3416L640.107 68.704ZM640.107 89.696L639.172 90.0499L639.176 90.0608L639.18 90.0717L640.107 89.696ZM645.227 97.888L644.493 98.5674L644.506 98.5815L644.52 98.5951L645.227 97.888ZM652.907 103.008L652.526 103.933L652.536 103.936L652.907 103.008ZM662.507 124.792C655.448 124.792 648.956 123.658 643.022 121.401L642.312 123.271C648.495 125.622 655.23 126.792 662.507 126.792V124.792ZM643.022 121.401C637.077 119.14 631.898 115.964 627.474 111.874L626.116 113.342C630.738 117.615 636.14 120.924 642.312 123.271L643.022 121.401ZM627.488 111.887C623.145 107.711 619.765 102.87 617.343 97.3577L615.511 98.1623C618.039 103.914 621.57 108.972 626.102 113.329L627.488 111.887ZM617.343 97.3577C614.929 91.8642 613.715 85.8162 613.715 79.2H611.715C611.715 86.0664 612.976 92.3918 615.511 98.1623L617.343 97.3577ZM613.715 79.2C613.715 72.5838 614.929 66.5358 617.343 61.0423L615.511 60.2377C612.976 66.0082 611.715 72.3335 611.715 79.2H613.715ZM617.343 61.0423C619.764 55.5319 623.142 50.7363 627.481 46.6478L626.109 45.1922C621.573 49.4664 618.04 54.484 615.511 60.2377L617.343 61.0423ZM627.481 46.6474C631.904 42.4747 637.081 39.258 643.022 36.9987L642.312 35.1293C636.135 37.478 630.731 40.832 626.109 45.1926L627.481 46.6474ZM643.022 36.9987C648.956 34.7422 655.448 33.608 662.507 33.608V31.608C655.23 31.608 648.495 32.7778 642.312 35.1293L643.022 36.9987ZM662.507 33.608C669.654 33.608 676.143 34.7428 681.987 36.997L682.707 35.131C676.604 32.7772 669.867 31.608 662.507 31.608V33.608ZM681.992 36.9987C687.931 39.2574 693.063 42.4723 697.398 46.6408L698.784 45.1992C694.245 40.8343 688.88 37.4786 682.702 35.1293L681.992 36.9987ZM697.405 46.6478C701.744 50.7363 705.122 55.5319 707.544 61.0423L709.375 60.2377C706.846 54.484 703.313 49.4664 698.777 45.1922L697.405 46.6478ZM707.549 61.0538C710.044 66.5445 711.299 72.5885 711.299 79.2H713.299C713.299 72.3289 711.994 65.9995 709.369 60.2262L707.549 61.0538ZM711.299 79.2C711.299 85.8114 710.044 91.9001 707.546 97.4793L709.372 98.2967C711.994 92.4412 713.299 86.0713 713.299 79.2H711.299ZM707.544 97.4857C705.122 102.996 701.744 107.792 697.405 111.88L698.777 113.336C703.313 109.062 706.846 104.044 709.375 98.2903L707.544 97.4857ZM697.405 111.88C693.069 115.966 687.935 119.141 681.992 121.401L682.702 123.271C688.876 120.923 694.238 117.613 698.777 113.336L697.405 111.88ZM681.987 121.403C676.143 123.657 669.654 124.792 662.507 124.792V126.792C669.867 126.792 676.604 125.623 682.707 123.269L681.987 121.403ZM662.507 105.8C666.039 105.8 669.327 105.181 672.36 103.933L671.598 102.083C668.828 103.224 665.801 103.8 662.507 103.8V105.8ZM672.35 103.936C675.463 102.691 678.144 100.907 680.38 98.5811L678.938 97.1949C676.908 99.3066 674.469 100.935 671.608 102.08L672.35 103.936ZM680.379 98.5816C682.697 96.1748 684.474 93.3267 685.714 90.0499L683.844 89.3421C682.694 92.3799 681.058 94.9932 678.939 97.1944L680.379 98.5816ZM685.706 90.0717C687.04 86.7808 687.699 83.1525 687.699 79.2H685.699C685.699 82.9275 685.078 86.2965 683.852 89.3203L685.706 90.0717ZM687.699 79.2C687.699 75.166 687.041 71.5331 685.702 68.3194L683.856 69.0886C685.077 72.0189 685.699 75.3834 685.699 79.2H687.699ZM685.714 68.3501C684.473 65.0704 682.692 62.2592 680.366 59.9329L678.952 61.3471C681.063 63.4581 682.695 66.0229 683.844 69.0579L685.714 68.3501ZM680.393 59.9606C678.156 57.545 675.471 55.7119 672.35 54.4635L671.608 56.3205C674.46 57.4614 676.895 59.127 678.925 61.3194L680.393 59.9606ZM672.36 54.4673C669.327 53.2187 666.039 52.6 662.507 52.6V54.6C665.801 54.6 668.828 55.176 671.598 56.3167L672.36 54.4673ZM662.507 52.6C658.974 52.6 655.647 53.2188 652.536 54.4635L653.278 56.3205C656.14 55.1759 659.213 54.6 662.507 54.6V52.6ZM652.526 54.4673C649.494 55.7157 646.819 57.5447 644.507 59.9464L645.947 61.3336C648.072 59.1273 650.517 57.4576 653.288 56.3167L652.526 54.4673ZM644.506 59.9469C642.276 62.2666 640.503 65.0656 639.18 68.3283L641.034 69.0797C642.271 66.0277 643.912 63.4507 645.948 61.3331L644.506 59.9469ZM639.175 68.3416C637.928 71.5489 637.315 75.1738 637.315 79.2H639.315C639.315 75.3755 639.897 72.0031 641.039 69.0664L639.175 68.3416ZM637.315 79.2C637.315 83.1444 637.929 86.765 639.172 90.0499L641.042 89.3421C639.896 86.3123 639.315 82.9355 639.315 79.2H637.315ZM639.18 90.0717C640.502 93.3316 642.271 96.1674 644.493 98.5674L645.961 97.2086C643.916 95.0006 642.272 92.3751 641.034 89.3203L639.18 90.0717ZM644.52 98.5951C646.832 100.907 649.503 102.688 652.526 103.933L653.288 102.083C650.508 100.939 648.059 99.3062 645.934 97.1809L644.52 98.5951ZM652.536 103.936C655.647 105.181 658.974 105.8 662.507 105.8V103.8C659.213 103.8 656.14 103.224 653.278 102.08L652.536 103.936Z" fill="#171717"/>
<line x1="9" y1="24.5" x2="94" y2="24.5" stroke="#171717"/>
<rect x="596.5" y="10.5" width="134" height="134" stroke="#171717"/>
<rect x="726.5" y="6.5" width="7" height="7" fill="white" stroke="#171717"/>
<rect x="592.5" y="6.5" width="7" height="7" fill="white" stroke="#171717"/>
<rect x="592.5" y="141.5" width="7" height="7" fill="white" stroke="#171717"/>
<rect x="726.5" y="141.5" width="7" height="7" fill="white" stroke="#171717"/>
<line x1="218" y1="77.5" x2="430" y2="77.5" stroke="#171717"/>
</g>
    </symbol>

         <symbol id="triangle-title" viewBox="0 0 70 54">
<path d="M16 27.0006L56.5 3.61793V50.3833L16 27.0006Z" fill="url(#paint0_linear_847_2747)"/>
<path opacity="0.3" d="M40 49.5167L0.999999 27L40 4.48335V49.5167Z" stroke="#171717"/>
<defs>
<linearGradient id="paint0_linear_847_2747" x1="16" y1="27.0006" x2="60.2188" y2="28.3506" gradientUnits="userSpaceOnUse">
<stop stop-color="#D3CFAD"/>
<stop offset="1" stop-color="#ADFFC4" stop-opacity="0"/>
</linearGradient>
</defs>
    </symbol>

</svg>