<svg width="120" height="97" viewBox="0 0 120 97" fill="none" xmlns="http://www.w3.org/2000/svg">
<path opacity="0.8" d="M17.6906 95V17.56L0.346626 28.12V13.208L17.6906 2.84H31.3226V95H17.6906ZM87.7546 96.92C81.4826 96.92 75.936 95.5547 71.1146 92.824C66.2933 90.0507 62.496 86.2533 59.7226 81.432C56.992 76.6107 55.6266 71.064 55.6266 64.792V33.048C55.6266 26.776 56.992 21.2293 59.7226 16.408C62.496 11.5867 66.2933 7.81066 71.1146 5.07999C75.936 2.30666 81.4826 0.919998 87.7546 0.919998C94.0266 0.919998 99.5733 2.30666 104.395 5.07999C109.216 7.81066 112.992 11.5867 115.723 16.408C118.496 21.2293 119.883 26.776 119.883 33.048V64.792C119.883 71.064 118.496 76.6107 115.723 81.432C112.992 86.2533 109.216 90.0507 104.395 92.824C99.5733 95.5547 94.0266 96.92 87.7546 96.92ZM87.7546 84.12C91.168 84.12 94.2613 83.3093 97.0346 81.688C99.8506 80.024 102.091 77.8053 103.755 75.032C105.419 72.216 106.251 69.08 106.251 65.624V32.088C106.251 28.6747 105.419 25.5813 103.755 22.808C102.091 19.992 99.8506 17.7733 97.0346 16.152C94.2613 14.488 91.168 13.656 87.7546 13.656C84.3413 13.656 81.2266 14.488 78.4106 16.152C75.6373 17.7733 73.4186 19.992 71.7546 22.808C70.0906 25.5813 69.2586 28.6747 69.2586 32.088V65.624C69.2586 69.08 70.0906 72.216 71.7546 75.032C73.4186 77.8053 75.6373 80.024 78.4106 81.688C81.2266 83.3093 84.3413 84.12 87.7546 84.12Z" fill="url(#paint0_linear_847_1474)"/>
<defs>
<linearGradient id="paint0_linear_847_1474" x1="61.1666" y1="-18" x2="61.1666" y2="68.5185" gradientUnits="userSpaceOnUse">
<stop stop-color="#B7ADD3"/>
<stop offset="1" stop-color="#FFADAD" stop-opacity="0.22"/>
</linearGradient>
</defs>
</svg>
