<svg width="231" height="128" viewBox="0 0 231 128" fill="none" xmlns="http://www.w3.org/2000/svg">
<path opacity="0.8" d="M34.752 114.728C30.1867 114.728 25.8987 113.875 21.888 112.168C17.8773 110.419 14.4 107.944 11.456 104.744C8.55467 101.544 6.44267 97.768 5.12 93.416L18.048 89.832C19.2853 93.8 21.44 96.8507 24.512 98.984C27.584 101.075 30.9973 102.099 34.752 102.056C38.1227 102.013 41.088 101.224 43.648 99.688C46.208 98.152 48.2133 96.0827 49.664 93.48C51.1147 90.8347 51.84 87.8053 51.84 84.392C51.84 79.272 50.24 75.048 47.04 71.72C43.8827 68.392 39.744 66.728 34.624 66.728C33.1733 66.728 31.68 66.9413 30.144 67.368C28.6507 67.7947 27.2427 68.3493 25.92 69.032L19.648 58.472L52.16 29.736L53.568 33.576H8.768V20.84H64.192V33.576L37.184 59.56L37.056 55.208C42.8587 55.208 47.8933 56.5093 52.16 59.112C56.4267 61.672 59.712 65.1707 62.016 69.608C64.3627 74.0027 65.536 78.9307 65.536 84.392C65.536 90.28 64.1493 95.5067 61.376 100.072C58.6453 104.637 54.9547 108.221 50.304 110.824C45.696 113.427 40.512 114.728 34.752 114.728ZM109.538 114.92C104.802 114.92 100.386 113.96 96.29 112.04C92.2367 110.077 88.7593 107.389 85.858 103.976C82.9567 100.52 80.8873 96.552 79.65 92.072L92.514 88.616C93.2393 91.3467 94.4767 93.7147 96.226 95.72C98.018 97.7253 100.109 99.2827 102.498 100.392C104.887 101.459 107.362 101.992 109.922 101.992C113.293 101.992 116.343 101.181 119.074 99.56C121.847 97.9387 124.023 95.7627 125.602 93.032C127.223 90.3013 128.034 87.2933 128.034 84.008C128.034 80.6373 127.202 77.5867 125.538 74.856C123.917 72.1253 121.719 69.9707 118.946 68.392C116.215 66.7707 113.207 65.96 109.922 65.96C106.167 65.96 102.989 66.7067 100.386 68.2C97.7833 69.6933 95.7567 71.4213 94.306 73.384L82.658 69.288L85.474 20.84H135.202V33.448H92.322L97.762 28.392L95.522 64.68L92.898 61.288C95.33 58.856 98.2313 57 101.602 55.72C104.973 54.44 108.322 53.8 111.65 53.8C117.367 53.8 122.466 55.1227 126.946 57.768C131.469 60.4133 135.031 64.0187 137.634 68.584C140.237 73.1067 141.538 78.248 141.538 84.008C141.538 89.7253 140.066 94.9307 137.122 99.624C134.178 104.275 130.274 107.987 125.41 110.76C120.546 113.533 115.255 114.92 109.538 114.92ZM188.963 114.92C182.691 114.92 177.144 113.555 172.323 110.824C167.502 108.051 163.704 104.253 160.931 99.432C158.2 94.6107 156.835 89.064 156.835 82.792V51.048C156.835 44.776 158.2 39.2293 160.931 34.408C163.704 29.5867 167.502 25.8107 172.323 23.08C177.144 20.3067 182.691 18.92 188.963 18.92C195.235 18.92 200.782 20.3067 205.603 23.08C210.424 25.8107 214.2 29.5867 216.931 34.408C219.704 39.2293 221.091 44.776 221.091 51.048V82.792C221.091 89.064 219.704 94.6107 216.931 99.432C214.2 104.253 210.424 108.051 205.603 110.824C200.782 113.555 195.235 114.92 188.963 114.92ZM188.963 102.12C192.376 102.12 195.47 101.309 198.243 99.688C201.059 98.024 203.299 95.8053 204.963 93.032C206.627 90.216 207.459 87.08 207.459 83.624V50.088C207.459 46.6747 206.627 43.5813 204.963 40.808C203.299 37.992 201.059 35.7733 198.243 34.152C195.47 32.488 192.376 31.656 188.963 31.656C185.55 31.656 182.435 32.488 179.619 34.152C176.846 35.7733 174.627 37.992 172.963 40.808C171.299 43.5813 170.467 46.6747 170.467 50.088V83.624C170.467 87.08 171.299 90.216 172.963 93.032C174.627 95.8053 176.846 98.024 179.619 99.688C182.435 101.309 185.55 102.12 188.963 102.12Z" fill="url(#paint0_linear_1124_3354)"/>
<path opacity="0.6" d="M22.2213 112.168L21.8215 113.085L21.8298 113.088L22.2213 112.168ZM11.7893 104.744L11.0485 105.416L11.0534 105.421L11.7893 104.744ZM5.45331 93.416L5.18616 92.4523L4.19849 92.7262L4.49653 93.7068L5.45331 93.416ZM18.3813 89.832L19.336 89.5343L19.0476 88.6096L18.1142 88.8683L18.3813 89.832ZM24.8453 98.984L24.2749 99.8054L24.2827 99.8107L24.8453 98.984ZM35.0853 102.056L35.0967 103.056L35.098 103.056L35.0853 102.056ZM43.9813 99.688L44.4958 100.545L43.9813 99.688ZM49.9973 93.48L50.8708 93.9669L50.8741 93.9608L49.9973 93.48ZM47.3733 71.72L46.6478 72.4083L46.6525 72.4131L47.3733 71.72ZM30.4773 67.368L30.2097 66.4044L30.2026 66.4065L30.4773 67.368ZM26.2533 69.032L25.3935 69.5427L25.8747 70.3528L26.712 69.9206L26.2533 69.032ZM19.9813 58.472L19.3191 57.7227L18.6988 58.2709L19.1215 58.9827L19.9813 58.472ZM52.4933 29.736L53.4322 29.3917L52.9281 28.017L51.8311 28.9867L52.4933 29.736ZM53.9013 33.576V34.576H55.3331L54.8402 33.2317L53.9013 33.576ZM9.10131 33.576H8.10131V34.576H9.10131V33.576ZM9.10131 20.84V19.84H8.10131V20.84H9.10131ZM64.5253 20.84H65.5253V19.84H64.5253V20.84ZM64.5253 33.576L65.2186 34.2966L65.5253 34.0016V33.576H64.5253ZM37.5173 59.56L36.5177 59.5894L36.5841 61.8455L38.2106 60.2806L37.5173 59.56ZM37.3893 55.208V54.208H36.3595L36.3897 55.2374L37.3893 55.208ZM52.4933 59.112L51.9725 59.9657L51.9788 59.9695L52.4933 59.112ZM62.3493 69.608L61.4618 70.0688L61.4672 70.079L62.3493 69.608ZM61.7093 100.072L60.8546 99.5528L60.8511 99.5587L61.7093 100.072ZM50.6373 110.824L50.1489 109.951L50.1455 109.953L50.6373 110.824ZM35.0853 113.728C30.648 113.728 26.4939 112.899 22.6129 111.248L21.8298 113.088C25.9701 114.85 30.3919 115.728 35.0853 115.728V113.728ZM22.6211 111.251C18.7371 109.557 15.3745 107.164 12.5252 104.067L11.0534 105.421C14.0922 108.724 17.6842 111.28 21.8215 113.085L22.6211 111.251ZM12.5301 104.072C9.7333 100.988 7.69214 97.3435 6.4101 93.1252L4.49653 93.7068C5.85982 98.1925 8.04266 102.1 11.0485 105.416L12.5301 104.072ZM5.72047 94.3797L18.6485 90.7957L18.1142 88.8683L5.18616 92.4523L5.72047 94.3797ZM17.4267 90.1297C18.7224 94.2851 20.9997 97.5309 24.2749 99.8054L25.4157 98.1626C22.5469 96.1704 20.5149 93.3149 19.336 89.5343L17.4267 90.1297ZM24.2827 99.8107C27.5257 102.018 31.1398 103.101 35.0967 103.056L35.074 101.056C31.5215 101.096 28.3089 100.132 25.4079 98.1573L24.2827 99.8107ZM35.098 103.056C38.6223 103.011 41.7653 102.184 44.4958 100.545L43.4668 98.8305C41.0774 100.264 38.2897 101.015 35.0727 101.056L35.098 103.056ZM44.4958 100.545C47.2055 98.9197 49.3348 96.7227 50.8708 93.9669L49.1238 92.9931C47.7585 95.4427 45.8771 97.3843 43.4668 98.8305L44.4958 100.545ZM50.8741 93.9608C52.4157 91.1497 53.1733 87.951 53.1733 84.392H51.1733C51.1733 87.6597 50.4802 90.5197 49.1205 92.9992L50.8741 93.9608ZM53.1733 84.392C53.1733 79.0443 51.4935 74.5622 48.0941 71.0269L46.6525 72.4131C49.6532 75.5338 51.1733 79.4997 51.1733 84.392H53.1733ZM48.0988 71.0317C44.7297 67.4806 40.3165 65.728 34.9573 65.728V67.728C39.8381 67.728 43.7022 69.3034 46.6479 72.4083L48.0988 71.0317ZM34.9573 65.728C33.4078 65.728 31.8243 65.956 30.2097 66.4045L30.745 68.3315C32.2023 67.9267 33.6055 67.728 34.9573 67.728V65.728ZM30.2026 66.4065C28.6484 66.8505 27.1786 67.4291 25.7947 68.1434L26.712 69.9206C27.9734 69.2696 29.3195 68.7388 30.752 68.3295L30.2026 66.4065ZM27.1131 68.5213L20.8411 57.9613L19.1215 58.9827L25.3935 69.5427L27.1131 68.5213ZM20.6436 59.2213L53.1556 30.4853L51.8311 28.9867L19.3191 57.7227L20.6436 59.2213ZM51.5544 30.0802L52.9624 33.9202L54.8402 33.2317L53.4322 29.3917L51.5544 30.0802ZM53.9013 32.576H9.10131V34.576H53.9013V32.576ZM10.1013 33.576V20.84H8.10131V33.576H10.1013ZM9.10131 21.84H64.5253V19.84H9.10131V21.84ZM63.5253 20.84V33.576H65.5253V20.84H63.5253ZM63.832 32.8554L36.824 58.8394L38.2106 60.2806L65.2186 34.2966L63.832 32.8554ZM38.5169 59.5306L38.3889 55.1786L36.3897 55.2374L36.5177 59.5894L38.5169 59.5306ZM37.3893 56.208C43.0383 56.208 47.8866 57.4732 51.9726 59.9657L53.0141 58.2583C48.5667 55.5454 43.3456 54.208 37.3893 54.208V56.208ZM51.9788 59.9695C56.086 62.4338 59.2426 65.7948 61.4618 70.0688L63.2368 69.1472C60.848 64.5465 57.4339 60.9102 53.0078 58.2545L51.9788 59.9695ZM61.4672 70.079C63.7292 74.3151 64.8693 79.0788 64.8693 84.392H66.8693C66.8693 78.7825 65.6628 73.6902 63.2314 69.137L61.4672 70.079ZM64.8693 84.392C64.8693 90.1162 63.5234 95.1597 60.8547 99.5528L62.564 100.591C65.4419 95.8536 66.8693 90.4438 66.8693 84.392H64.8693ZM60.8511 99.5587C58.2104 103.974 54.6473 107.434 50.149 109.951L51.1257 111.697C55.9286 109.009 59.7469 105.301 62.5675 100.585L60.8511 99.5587ZM50.1455 109.953C45.7006 112.464 40.6886 113.728 35.0853 113.728V115.728C41.002 115.728 46.358 114.39 51.1291 111.695L50.1455 109.953ZM96.6233 112.04L96.1875 112.94L96.1989 112.945L96.6233 112.04ZM86.1913 103.976L85.4254 104.619L85.4294 104.624L86.1913 103.976ZM79.9833 92.072L79.7239 91.1062L78.7513 91.3675L79.0194 92.3382L79.9833 92.072ZM92.8473 88.616L93.8138 88.3593L93.5564 87.3901L92.5879 87.6502L92.8473 88.616ZM96.5593 95.72L95.8057 96.3774L95.8137 96.3863L96.5593 95.72ZM102.831 100.392L102.41 101.299L102.417 101.302L102.424 101.305L102.831 100.392ZM119.407 99.56L118.903 98.6967L118.897 98.7001L119.407 99.56ZM125.935 93.032L125.075 92.5214L125.07 92.5315L125.935 93.032ZM125.871 74.856L125.011 75.3666L125.017 75.3764L125.871 74.856ZM119.279 68.392L118.769 69.2519L118.777 69.2565L118.785 69.2611L119.279 68.392ZM100.719 68.2L100.222 67.3326L100.222 67.3326L100.719 68.2ZM94.6393 73.384L94.3076 74.3274L95.0044 74.5724L95.4435 73.9784L94.6393 73.384ZM82.9913 69.288L81.993 69.23L81.9493 69.9816L82.6596 70.2314L82.9913 69.288ZM85.8073 20.84V19.84H84.8637L84.809 20.782L85.8073 20.84ZM135.535 20.84H136.535V19.84H135.535V20.84ZM135.535 33.448V34.448H136.535V33.448H135.535ZM92.6553 33.448L91.9745 32.7155L90.1105 34.448H92.6553V33.448ZM98.0953 28.392L99.0934 28.4536L99.2476 25.9558L97.4145 27.6595L98.0953 28.392ZM95.8553 64.68L95.0644 65.2919L96.6898 67.393L96.8534 64.7416L95.8553 64.68ZM93.2313 61.288L92.5242 60.5809L91.9016 61.2035L92.4404 61.8999L93.2313 61.288ZM101.935 55.72L102.29 56.6549L102.29 56.6549L101.935 55.72ZM127.279 57.768L126.771 58.6291L126.774 58.6312L127.279 57.768ZM137.967 68.584L137.099 69.0793L137.101 69.0828L137.967 68.584ZM137.455 99.624L138.3 100.159L138.302 100.155L137.455 99.624ZM125.743 110.76L126.239 111.629V111.629L125.743 110.76ZM109.871 113.92C105.275 113.92 101.005 112.989 97.0477 111.135L96.1989 112.945C100.434 114.931 104.996 115.92 109.871 115.92V113.92ZM97.0591 111.14C93.1302 109.238 89.7641 106.635 86.9533 103.328L85.4294 104.624C88.4212 108.143 92.0098 110.917 96.1875 112.94L97.0591 111.14ZM86.9572 103.333C84.1509 99.9903 82.1475 96.1517 80.9472 91.8058L79.0194 92.3382C80.2938 96.9523 82.429 101.05 85.4254 104.619L86.9572 103.333ZM80.2428 93.0378L93.1068 89.5818L92.5879 87.6502L79.7239 91.1062L80.2428 93.0378ZM91.8808 88.8727C92.643 91.7421 93.9495 94.2495 95.8057 96.3774L97.3129 95.0626C95.6705 93.1799 94.5023 90.9512 93.8138 88.3593L91.8808 88.8727ZM95.8137 96.3863C97.6944 98.491 99.8948 100.131 102.41 101.299L103.252 99.485C100.989 98.4342 99.0082 96.9597 97.305 95.0537L95.8137 96.3863ZM102.424 101.305C104.938 102.428 107.552 102.992 110.255 102.992V100.992C107.839 100.992 105.503 100.49 103.239 99.4789L102.424 101.305ZM110.255 102.992C113.794 102.992 117.023 102.139 119.918 100.42L118.897 98.7001C116.33 100.224 113.458 100.992 110.255 100.992V102.992ZM119.912 100.423C122.832 98.7161 125.134 96.4163 126.801 93.5325L125.07 92.5315C123.579 95.1091 121.529 97.1612 118.903 98.6967L119.912 100.423ZM126.795 93.5425C128.511 90.6519 129.367 87.4665 129.367 84.008H127.367C127.367 87.1201 126.602 89.9508 125.075 92.5215L126.795 93.5425ZM129.367 84.008C129.367 80.4641 128.49 77.2317 126.725 74.3356L125.017 75.3764C126.581 77.9417 127.367 80.8105 127.367 84.008H129.367ZM126.731 74.3455C125.021 71.4649 122.697 69.187 119.774 67.5229L118.785 69.2611C121.408 70.7544 123.479 72.7858 125.011 75.3665L126.731 74.3455ZM119.79 67.5321C116.899 65.8158 113.714 64.96 110.255 64.96V66.96C113.367 66.96 116.198 67.7255 118.769 69.2519L119.79 67.5321ZM110.255 64.96C106.369 64.96 103.009 65.7331 100.222 67.3326L101.217 69.0674C103.635 67.6802 106.632 66.96 110.255 66.96V64.96ZM100.222 67.3326C97.5258 68.8794 95.3846 70.6933 93.8351 72.7896L95.4435 73.9784C96.7954 72.1494 98.7075 70.5073 101.217 69.0674L100.222 67.3326ZM94.971 72.4406L83.3231 68.3446L82.6596 70.2314L94.3076 74.3274L94.971 72.4406ZM83.9896 69.346L86.8056 20.898L84.809 20.782L81.993 69.23L83.9896 69.346ZM85.8073 21.84H135.535V19.84H85.8073V21.84ZM134.535 20.84V33.448H136.535V20.84H134.535ZM135.535 32.448H92.6553V34.448H135.535V32.448ZM93.3361 34.1805L98.7761 29.1245L97.4145 27.6595L91.9745 32.7155L93.3361 34.1805ZM97.0972 28.3304L94.8572 64.6184L96.8534 64.7416L99.0934 28.4536L97.0972 28.3304ZM96.6463 64.0681L94.0223 60.6761L92.4404 61.8999L95.0644 65.2919L96.6463 64.0681ZM93.9384 61.9951C96.2657 59.6679 99.0453 57.8872 102.29 56.6549L101.58 54.7851C98.084 56.1128 95.061 58.0441 92.5242 60.5809L93.9384 61.9951ZM102.29 56.6549C105.557 55.4143 108.786 54.8 111.983 54.8V52.8C108.524 52.8 105.055 53.4657 101.58 54.7851L102.29 56.6549ZM111.983 54.8C117.54 54.8 122.46 56.0835 126.771 58.6291L127.788 56.9069C123.139 54.1618 117.861 52.8 111.983 52.8V54.8ZM126.774 58.6312C131.145 61.1876 134.583 64.6659 137.099 69.0793L138.836 68.0887C136.147 63.3714 132.459 59.639 127.784 56.9048L126.774 58.6312ZM137.101 69.0828C139.607 73.4383 140.871 78.4044 140.871 84.008H142.871C142.871 78.0916 141.533 72.775 138.834 68.0852L137.101 69.0828ZM140.871 84.008C140.871 89.5437 139.449 94.5638 136.608 99.0926L138.302 100.155C141.35 95.2975 142.871 89.907 142.871 84.008H140.871ZM136.61 99.0891C133.755 103.599 129.972 107.198 125.248 109.891L126.239 111.629C131.242 108.776 135.267 104.95 138.3 100.159L136.61 99.0891ZM125.248 109.891C120.538 112.577 115.419 113.92 109.871 113.92V115.92C115.759 115.92 121.22 114.49 126.239 111.629L125.248 109.891ZM172.656 110.824L172.158 111.691L172.163 111.694L172.656 110.824ZM161.264 99.432L160.394 99.9248L160.397 99.9306L161.264 99.432ZM161.264 34.408L160.397 33.9094L160.394 33.9152L161.264 34.408ZM172.656 23.08L173.149 23.9501L173.155 23.9468L172.656 23.08ZM205.936 23.08L205.438 23.9468L205.443 23.9501L205.936 23.08ZM217.264 34.408L216.394 34.9008L216.397 34.9066L217.264 34.408ZM217.264 99.432L216.397 98.9334L216.394 98.9392L217.264 99.432ZM205.936 110.824L206.429 111.694L206.435 111.691L205.936 110.824ZM198.576 99.688L199.081 100.551L199.085 100.549L198.576 99.688ZM205.296 93.032L206.154 93.5465L206.157 93.5407L205.296 93.032ZM205.296 40.808L204.435 41.3167L204.439 41.3225L205.296 40.808ZM198.576 34.152L198.062 35.0095L198.07 35.0141L198.077 35.0186L198.576 34.152ZM179.952 34.152L180.457 35.0153L180.461 35.0129L179.952 34.152ZM173.296 40.808L174.154 41.3225L174.157 41.3167L173.296 40.808ZM173.296 93.032L172.435 93.5407L172.439 93.5465L173.296 93.032ZM179.952 99.688L179.438 100.545L179.446 100.55L179.453 100.555L179.952 99.688ZM189.296 113.92C183.174 113.92 177.801 112.589 173.149 109.954L172.163 111.694C177.154 114.521 182.875 115.92 189.296 115.92V113.92ZM173.155 109.957C168.487 107.272 164.816 103.602 162.131 98.9334L160.397 99.9306C163.259 104.905 167.183 108.829 172.158 111.691L173.155 109.957ZM162.134 98.9392C159.5 94.2871 158.168 88.9144 158.168 82.792H156.168C156.168 89.2135 157.568 94.9342 160.394 99.9248L162.134 98.9392ZM158.168 82.792V51.048H156.168V82.792H158.168ZM158.168 51.048C158.168 44.9255 159.5 39.5529 162.134 34.9008L160.394 33.9152C157.568 38.9058 156.168 44.6264 156.168 51.048H158.168ZM162.131 34.9066C164.816 30.2397 168.484 26.5923 173.149 23.9501L172.163 22.2099C167.186 25.029 163.26 28.9336 160.397 33.9094L162.131 34.9066ZM173.155 23.9468C177.806 21.2714 183.177 19.92 189.296 19.92V17.92C182.872 17.92 177.149 19.3419 172.158 22.2132L173.155 23.9468ZM189.296 19.92C195.416 19.92 200.787 21.2714 205.438 23.9468L206.435 22.2132C201.443 19.3419 195.721 17.92 189.296 17.92V19.92ZM205.443 23.9501C210.107 26.5915 213.753 30.2371 216.394 34.9008L218.134 33.9152C215.315 28.9362 211.408 25.0298 206.429 22.2099L205.443 23.9501ZM216.397 34.9066C219.073 39.5577 220.424 44.9282 220.424 51.048H222.424C222.424 44.6238 221.002 38.901 218.131 33.9094L216.397 34.9066ZM220.424 51.048V82.792H222.424V51.048H220.424ZM220.424 82.792C220.424 88.9118 219.073 94.2823 216.397 98.9334L218.131 99.9306C221.002 94.939 222.424 89.2162 222.424 82.792H220.424ZM216.394 98.9392C213.752 103.604 210.105 107.273 205.438 109.957L206.435 111.691C211.411 108.829 215.315 104.902 218.134 99.9248L216.394 98.9392ZM205.443 109.954C200.791 112.589 195.419 113.92 189.296 113.92V115.92C195.718 115.92 201.439 114.521 206.429 111.694L205.443 109.954ZM189.296 103.12C192.876 103.12 196.145 102.268 199.081 100.551L198.072 98.8247C195.461 100.351 192.544 101.12 189.296 101.12V103.12ZM199.085 100.549C202.043 98.8013 204.403 96.4642 206.154 93.5465L204.439 92.5175C202.861 95.1465 200.742 97.2467 198.068 98.8271L199.085 100.549ZM206.157 93.5407C207.918 90.5618 208.792 87.2484 208.792 83.624H206.792C206.792 86.9116 206.003 89.8702 204.435 92.5233L206.157 93.5407ZM208.792 83.624V50.088H206.792V83.624H208.792ZM208.792 50.088C208.792 46.5039 207.916 43.231 206.154 40.2935L204.439 41.3225C206.004 43.9317 206.792 46.8454 206.792 50.088H208.792ZM206.157 40.2993C204.406 37.3358 202.042 34.9934 199.075 33.2854L198.077 35.0186C200.743 36.5533 202.859 38.6482 204.435 41.3167L206.157 40.2993ZM199.091 33.2945C196.153 31.532 192.88 30.656 189.296 30.656V32.656C192.539 32.656 195.453 33.444 198.062 35.0095L199.091 33.2945ZM189.296 30.656C185.712 30.656 182.421 31.532 179.444 33.2911L180.461 35.0129C183.116 33.444 186.054 32.656 189.296 32.656V30.656ZM179.448 33.2887C176.525 34.9976 174.184 37.3395 172.435 40.2993L174.157 41.3167C175.736 38.6445 177.833 36.5491 180.457 35.0153L179.448 33.2887ZM172.439 40.2935C170.676 43.231 169.8 46.5039 169.8 50.088H171.8C171.8 46.8454 172.588 43.9317 174.154 41.3225L172.439 40.2935ZM169.8 50.088V83.624H171.8V50.088H169.8ZM169.8 83.624C169.8 87.2484 170.675 90.5618 172.435 93.5407L174.157 92.5233C172.59 89.8702 171.8 86.9116 171.8 83.624H169.8ZM172.439 93.5465C174.187 96.4606 176.524 98.797 179.438 100.545L180.467 98.8305C177.834 97.251 175.733 95.1501 174.154 92.5175L172.439 93.5465ZM179.453 100.555C182.429 102.268 185.717 103.12 189.296 103.12V101.12C186.049 101.12 183.108 100.351 180.451 98.8214L179.453 100.555Z" fill="#171717"/>
<defs>
<linearGradient id="paint0_linear_1124_3354" x1="75" y1="49" x2="-8.63739" y2="124.664" gradientUnits="userSpaceOnUse">
<stop stop-color="#D3CFAD"/>
<stop offset="1" stop-color="#ADFFC4" stop-opacity="0"/>
</linearGradient>
</defs>
</svg>
