<svg width="60" height="60" viewBox="0 0 60 60" fill="none" xmlns="http://www.w3.org/2000/svg">
<path d="M21.75 29.2501C21.5511 29.2501 21.3603 29.3291 21.2197 29.4697C21.079 29.6104 21 29.8011 21 30.0001C21 30.199 21.079 30.3897 21.2197 30.5304C21.3603 30.671 21.5511 30.7501 21.75 30.7501H36.2955L30.249 36.1921C30.174 36.2574 30.1127 36.3369 30.0687 36.4261C30.0247 36.5154 29.9989 36.6124 29.9928 36.7117C29.9867 36.811 30.0004 36.9105 30.0331 37.0044C30.0658 37.0984 30.1168 37.1849 30.1833 37.2589C30.2497 37.3329 30.3303 37.3929 30.4201 37.4355C30.51 37.4781 30.6075 37.5024 30.7068 37.507C30.8062 37.5116 30.9055 37.4964 30.9989 37.4622C31.0923 37.428 31.178 37.3756 31.251 37.3081L38.751 30.5581C38.8293 30.4877 38.892 30.4017 38.9348 30.3055C38.9777 30.2094 38.9999 30.1053 38.9999 30.0001C38.9999 29.8948 38.9777 29.7907 38.9348 29.6946C38.892 29.5984 38.8293 29.5124 38.751 29.4421L31.251 22.6921C31.1025 22.5628 30.9091 22.4971 30.7125 22.5092C30.516 22.5213 30.3321 22.6102 30.2006 22.7568C30.069 22.9033 30.0004 23.0956 30.0094 23.2923C30.0185 23.489 30.1045 23.6743 30.249 23.8081L36.2955 29.2501H21.75Z" fill="#171717"/>
<rect x="0.5" y="0.5" width="59" height="59" rx="29.5" stroke="#171717"/>
</svg>
