<svg width="613" height="613" viewBox="0 0 613 613" fill="none" xmlns="http://www.w3.org/2000/svg">
<path d="M312.127 189.604L313.122 189.656L336.92 17.0734L324.315 190.833L325.3 190.988L367.007 21.8391L336.308 193.328L337.271 193.586L396.43 29.7229L347.975 197.064L348.905 197.421L424.869 40.6392L359.187 201.999L360.075 202.451L452.01 54.4686L369.821 208.079L370.657 208.621L477.558 71.0593L379.762 215.237L380.537 215.864L501.231 90.2293L388.901 223.395L389.605 224.099L522.771 111.769L397.136 232.463L397.763 233.238L541.94 135.443L404.379 242.343L404.921 243.179L558.531 160.99L410.549 252.925L411.001 253.813L572.36 188.131L415.579 264.095L415.936 265.025L583.277 216.57L419.414 275.729L419.672 276.692L591.161 245.993L422.012 287.7L422.167 288.685L595.927 276.08L423.344 299.878L423.396 300.873L597.521 306.5L423.396 312.127L423.344 313.122L595.927 336.92L422.167 324.315L422.012 325.3L591.161 367.007L419.672 336.308L419.414 337.271L583.277 396.43L415.936 347.975L415.579 348.905L572.361 424.869L411.001 359.187L410.549 360.075L558.531 452.01L404.921 369.821L404.379 370.657L541.94 477.557L397.763 379.762L397.136 380.537L522.771 501.231L389.605 388.901L388.901 389.605L501.231 522.771L380.537 397.136L379.762 397.763L477.557 541.94L370.657 404.379L369.821 404.921L452.01 558.531L360.075 410.549L359.187 411.001L424.869 572.361L348.905 415.579L347.975 415.936L396.43 583.277L337.271 419.414L336.308 419.672L367.007 591.161L325.3 422.012L324.315 422.167L336.92 595.927L313.122 423.344L312.127 423.396L306.5 597.521L300.873 423.396L299.878 423.344L276.08 595.927L288.685 422.167L287.7 422.012L245.993 591.161L276.692 419.672L275.729 419.414L216.57 583.277L265.025 415.936L264.095 415.579L188.131 572.36L253.813 411.001L252.925 410.549L160.99 558.531L243.179 404.921L242.343 404.379L135.443 541.94L233.238 397.763L232.463 397.136L111.769 522.771L224.099 389.605L223.395 388.901L90.2293 501.231L215.864 380.537L215.237 379.762L71.0593 477.558L208.621 370.657L208.079 369.821L54.4686 452.01L202.451 360.075L201.999 359.187L40.6392 424.869L197.421 348.905L197.064 347.975L29.7229 396.43L193.586 337.271L193.328 336.308L21.8391 367.007L190.988 325.3L190.833 324.315L17.0734 336.92L189.656 313.122L189.604 312.127L15.4789 306.5L189.604 300.873L189.656 299.878L17.0734 276.08L190.833 288.685L190.988 287.7L21.8387 245.993L193.328 276.692L193.586 275.729L29.7229 216.57L197.064 265.025L197.421 264.095L40.6394 188.131L201.999 253.813L202.451 252.925L54.4686 160.99L208.079 243.179L208.621 242.343L71.0593 135.442L215.237 233.238L215.864 232.463L90.2295 111.769L223.395 224.099L224.099 223.395L111.769 90.2295L232.463 215.864L233.238 215.237L135.442 71.0593L242.343 208.621L243.179 208.079L160.99 54.4686L252.925 202.451L253.813 201.999L188.131 40.6394L264.095 197.421L265.025 197.064L216.57 29.7229L275.729 193.586L276.692 193.328L245.993 21.8387L287.7 190.988L288.685 190.833L276.08 17.0734L299.878 189.656L300.873 189.604L306.5 15.4789L312.127 189.604Z" stroke="url(#paint0_linear_847_1430)" stroke-opacity="0.4"/>
<defs>
<linearGradient id="paint0_linear_847_1430" x1="-3.23102e-06" y1="307.782" x2="545.031" y2="307.782" gradientUnits="userSpaceOnUse">
<stop stop-color="#D3ADAD"/>
<stop offset="0.286458" stop-color="#D3C4AD"/>
<stop offset="0.510417" stop-color="#ADD3B1"/>
<stop offset="0.75" stop-color="#ADCAD3"/>
<stop offset="1" stop-color="#E5ADFF"/>
</linearGradient>
</defs>
</svg>
