<svg width="40" height="40" viewBox="0 0 40 40" fill="none" xmlns="http://www.w3.org/2000/svg">
<rect x="0.5" y="0.5" width="39" height="39" rx="19.5" fill="white"/>
<path d="M19.25 11.75V9.5C19.25 9.30109 19.329 9.11032 19.4697 8.96967C19.6103 8.82902 19.8011 8.75 20 8.75C20.1989 8.75 20.3897 8.82902 20.5303 8.96967C20.671 9.11032 20.75 9.30109 20.75 9.5V11.75C20.75 11.9489 20.671 12.1397 20.5303 12.2803C20.3897 12.421 20.1989 12.5 20 12.5C19.8011 12.5 19.6103 12.421 19.4697 12.2803C19.329 12.1397 19.25 11.9489 19.25 11.75ZM20 14C18.8133 14 17.6533 14.3519 16.6666 15.0112C15.6799 15.6705 14.9108 16.6075 14.4567 17.7039C14.0026 18.8003 13.8838 20.0067 14.1153 21.1705C14.3468 22.3344 14.9182 23.4035 15.7574 24.2426C16.5965 25.0818 17.6656 25.6532 18.8295 25.8847C19.9933 26.1162 21.1997 25.9974 22.2961 25.5433C23.3925 25.0892 24.3295 24.3201 24.9888 23.3334C25.6481 22.3467 26 21.1867 26 20C25.9983 18.4092 25.3656 16.8841 24.2407 15.7593C23.1159 14.6344 21.5908 14.0017 20 14ZM13.4694 14.5306C13.6101 14.6714 13.801 14.7504 14 14.7504C14.199 14.7504 14.3899 14.6714 14.5306 14.5306C14.6714 14.3899 14.7504 14.199 14.7504 14C14.7504 13.801 14.6714 13.6101 14.5306 13.4694L13.0306 11.9694C12.8899 11.8286 12.699 11.7496 12.5 11.7496C12.301 11.7496 12.1101 11.8286 11.9694 11.9694C11.8286 12.1101 11.7496 12.301 11.7496 12.5C11.7496 12.699 11.8286 12.8899 11.9694 13.0306L13.4694 14.5306ZM13.4694 25.4694L11.9694 26.9694C11.8286 27.1101 11.7496 27.301 11.7496 27.5C11.7496 27.699 11.8286 27.8899 11.9694 28.0306C12.1101 28.1714 12.301 28.2504 12.5 28.2504C12.699 28.2504 12.8899 28.1714 13.0306 28.0306L14.5306 26.5306C14.6003 26.4609 14.6556 26.3782 14.6933 26.2872C14.731 26.1961 14.7504 26.0985 14.7504 26C14.7504 25.9015 14.731 25.8039 14.6933 25.7128C14.6556 25.6218 14.6003 25.5391 14.5306 25.4694C14.4609 25.3997 14.3782 25.3444 14.2872 25.3067C14.1961 25.269 14.0985 25.2496 14 25.2496C13.9015 25.2496 13.8039 25.269 13.7128 25.3067C13.6218 25.3444 13.5391 25.3997 13.4694 25.4694ZM26 14.75C26.0985 14.7501 26.1961 14.7307 26.2871 14.6931C26.3782 14.6555 26.4609 14.6003 26.5306 14.5306L28.0306 13.0306C28.1714 12.8899 28.2504 12.699 28.2504 12.5C28.2504 12.301 28.1714 12.1101 28.0306 11.9694C27.8899 11.8286 27.699 11.7496 27.5 11.7496C27.301 11.7496 27.1101 11.8286 26.9694 11.9694L25.4694 13.4694C25.3644 13.5743 25.2928 13.708 25.2639 13.8535C25.2349 13.9991 25.2497 14.15 25.3065 14.2871C25.3633 14.4242 25.4596 14.5414 25.583 14.6238C25.7065 14.7062 25.8516 14.7501 26 14.75ZM26.5306 25.4694C26.3899 25.3286 26.199 25.2496 26 25.2496C25.801 25.2496 25.6101 25.3286 25.4694 25.4694C25.3286 25.6101 25.2496 25.801 25.2496 26C25.2496 26.199 25.3286 26.3899 25.4694 26.5306L26.9694 28.0306C27.0391 28.1003 27.1218 28.1556 27.2128 28.1933C27.3039 28.231 27.4015 28.2504 27.5 28.2504C27.5985 28.2504 27.6961 28.231 27.7872 28.1933C27.8782 28.1556 27.9609 28.1003 28.0306 28.0306C28.1003 27.9609 28.1556 27.8782 28.1933 27.7872C28.231 27.6961 28.2504 27.5985 28.2504 27.5C28.2504 27.4015 28.231 27.3039 28.1933 27.2128C28.1556 27.1218 28.1003 27.0391 28.0306 26.9694L26.5306 25.4694ZM12.5 20C12.5 19.8011 12.421 19.6103 12.2803 19.4697C12.1397 19.329 11.9489 19.25 11.75 19.25H9.5C9.30109 19.25 9.11032 19.329 8.96967 19.4697C8.82902 19.6103 8.75 19.8011 8.75 20C8.75 20.1989 8.82902 20.3897 8.96967 20.5303C9.11032 20.671 9.30109 20.75 9.5 20.75H11.75C11.9489 20.75 12.1397 20.671 12.2803 20.5303C12.421 20.3897 12.5 20.1989 12.5 20ZM20 27.5C19.8011 27.5 19.6103 27.579 19.4697 27.7197C19.329 27.8603 19.25 28.0511 19.25 28.25V30.5C19.25 30.6989 19.329 30.8897 19.4697 31.0303C19.6103 31.171 19.8011 31.25 20 31.25C20.1989 31.25 20.3897 31.171 20.5303 31.0303C20.671 30.8897 20.75 30.6989 20.75 30.5V28.25C20.75 28.0511 20.671 27.8603 20.5303 27.7197C20.3897 27.579 20.1989 27.5 20 27.5ZM30.5 19.25H28.25C28.0511 19.25 27.8603 19.329 27.7197 19.4697C27.579 19.6103 27.5 19.8011 27.5 20C27.5 20.1989 27.579 20.3897 27.7197 20.5303C27.8603 20.671 28.0511 20.75 28.25 20.75H30.5C30.6989 20.75 30.8897 20.671 31.0303 20.5303C31.171 20.3897 31.25 20.1989 31.25 20C31.25 19.8011 31.171 19.6103 31.0303 19.4697C30.8897 19.329 30.6989 19.25 30.5 19.25Z" fill="#171717"/>
<rect x="0.5" y="0.5" width="39" height="39" rx="19.5" stroke="#171717"/>
</svg>
