<svg width="40" height="40" viewBox="0 0 40 40" fill="none" xmlns="http://www.w3.org/2000/svg">
<rect x="0.5" y="0.5" width="39" height="39" rx="19.5" fill="white"/>
<path d="M30.0819 22.0822C29.4763 24.0593 28.2624 25.7951 26.6132 27.0425C25.1652 28.1323 23.4421 28.797 21.6373 28.9619C19.8326 29.1268 18.0175 28.7855 16.396 27.9762C14.7745 27.1668 13.4106 25.9216 12.4574 24.3802C11.5043 22.8388 10.9996 21.0623 11 19.25C10.9935 17.1347 11.6812 15.0756 12.9575 13.3887C14.2049 11.7395 15.9407 10.5257 17.9179 9.91999C18.0482 9.87987 18.187 9.87602 18.3193 9.90888C18.4516 9.94173 18.5725 10.01 18.6689 10.1064C18.7653 10.2029 18.8336 10.3237 18.8665 10.4561C18.8993 10.5884 18.8955 10.7272 18.8554 10.8575C18.423 12.2876 18.3868 13.8082 18.7505 15.2572C19.1142 16.7063 19.8642 18.0296 20.9206 19.086C21.977 20.1424 23.3003 20.8924 24.7494 21.2561C26.1984 21.6198 27.719 21.5836 29.1491 21.1512C29.2794 21.1111 29.4182 21.1073 29.5505 21.1401C29.6829 21.173 29.8037 21.2413 29.9002 21.3377C29.9966 21.4341 30.0649 21.555 30.0977 21.6873C30.1306 21.8196 30.1267 21.9584 30.0866 22.0887L30.0819 22.0822Z" fill="#171717"/>
<rect x="0.5" y="0.5" width="39" height="39" rx="19.5" stroke="#171717"/>
</svg>
