<svg width="70" height="60" viewBox="0 0 70 60" fill="none" xmlns="http://www.w3.org/2000/svg">
<path d="M69.9211 59.1403L35.5069 0.27751C35.2965 -0.0909137 34.7035 -0.0909137 34.4931 0.268064L0.0789096 59.1403C-0.0263032 59.3198 -0.0263032 59.5371 0.0789096 59.7166C0.184122 59.8961 0.375418 60 0.585844 60H69.4046C69.6246 60 69.8159 59.8961 69.9211 59.7166C70.0263 59.5371 70.0263 59.3198 69.9211 59.1403ZM24.9091 17.8013L41.2649 45.8393C41.2649 45.8487 41.2458 45.8676 41.2267 45.8676H8.49594L24.9091 17.8013ZM8.21856 46.34H41.2267C41.418 46.34 41.5902 46.2361 41.6858 46.0755C41.7814 45.9149 41.7814 45.7165 41.6858 45.5559L25.1865 17.3289L28.7255 11.2736L51.8532 50.8839C51.8436 50.9028 51.8341 50.9122 51.8054 50.9122H5.54998L8.21856 46.34ZM5.2726 51.3845H51.8054C51.9967 51.3845 52.1688 51.2901 52.2645 51.12C52.3601 50.9594 52.3601 50.7705 52.2645 50.6005L28.9933 10.7918L31.5471 6.48404L60.2511 55.5789C60.2415 55.5884 60.2319 55.5978 60.2033 55.5978H2.90053L2.8527 55.5222L5.2726 51.3845ZM69.5003 59.4804C69.4907 59.4993 69.462 59.5277 69.4046 59.5277H0.585844C0.53802 59.5277 0.509326 59.4993 0.499761 59.4804C0.480631 59.4615 0.471066 59.4237 0.499761 59.3765L2.5275 55.919C2.62315 56.0135 2.75705 56.0701 2.90053 56.0701H60.2033C60.3946 56.0701 60.5667 55.9757 60.6624 55.8151C60.758 55.645 60.758 55.4561 60.6624 55.2861L32.0062 6.27621C31.9297 6.14396 31.8149 6.05893 31.6714 6.03059L34.9044 0.504233C34.933 0.456999 34.9713 0.456999 35 0.456999C35.0191 0.456999 35.067 0.456999 35.1052 0.532573L69.5003 59.3765C69.5289 59.4237 69.5194 59.4615 69.5003 59.4804Z" fill="#171717"/>
</svg>
