<svg width="545" height="475" viewBox="0 0 545 475" fill="none" xmlns="http://www.w3.org/2000/svg">
<path d="M544.386 468.194L276.447 2.19696C274.809 -0.719733 270.191 -0.719733 268.553 2.12217L0.614368 468.194C-0.204789 469.615 -0.204789 471.335 0.614368 472.756C1.43352 474.177 2.9229 475 4.56121 475H540.364C542.077 475 543.566 474.177 544.386 472.756C545.205 471.335 545.205 469.615 544.386 468.194ZM193.935 140.927L321.277 362.894C321.277 362.969 321.128 363.119 320.979 363.119H66.1469L193.935 140.927ZM63.9873 366.858H320.979C322.469 366.858 323.809 366.035 324.554 364.764C325.298 363.493 325.298 361.922 324.554 360.651L196.095 137.187L223.648 89.249L403.714 402.831C403.64 402.98 403.565 403.055 403.342 403.055H43.2105L63.9873 366.858ZM41.0509 406.794H403.342C404.831 406.794 406.172 406.046 406.916 404.7C407.661 403.429 407.661 401.933 406.916 400.587L225.734 85.4348L245.617 51.332L469.098 440C469.023 440.075 468.949 440.149 468.725 440.149H22.5827L22.2103 439.551L41.0509 406.794ZM541.109 470.887C541.035 471.036 540.811 471.261 540.364 471.261H4.56121C4.18887 471.261 3.96546 471.036 3.891 470.887C3.74206 470.737 3.66759 470.438 3.891 470.064L19.6784 442.692C20.4231 443.44 21.4656 443.889 22.5827 443.889H468.725C470.215 443.889 471.555 443.141 472.3 441.869C473.044 440.523 473.044 439.027 472.3 437.681L249.191 49.6867C248.596 48.6396 247.702 47.9666 246.585 47.7422L271.755 3.99184C271.979 3.61791 272.277 3.61791 272.5 3.61791C272.649 3.61791 273.021 3.61791 273.319 4.21621L541.109 470.064C541.332 470.438 541.258 470.737 541.109 470.887Z" fill="url(#paint0_linear_812_5600)"/>
<defs>
<linearGradient id="paint0_linear_812_5600" x1="0.0186172" y1="237.528" x2="545.019" y2="237.528" gradientUnits="userSpaceOnUse">
<stop stop-color="#DA0713"/>
<stop offset="0.3492" stop-color="#FED336"/>
<stop offset="0.6432" stop-color="#98B513"/>
<stop offset="1" stop-color="#98B6EA"/>
</linearGradient>
</defs>
</svg>
