<svg width="60" height="60" viewBox="0 0 60 60" fill="none" xmlns="http://www.w3.org/2000/svg">
<path d="M38.2499 30.7656C38.4488 30.7656 38.6396 30.6866 38.7802 30.5459C38.9209 30.4053 38.9999 30.2145 38.9999 30.0156C38.9999 29.8167 38.9209 29.6259 38.7802 29.4852C38.6396 29.3446 38.4488 29.2656 38.2499 29.2656H23.7044L29.7509 23.8236C29.8259 23.7583 29.8872 23.6787 29.9312 23.5895C29.9752 23.5003 30.001 23.4032 30.0071 23.3039C30.0132 23.2046 29.9995 23.1051 29.9668 23.0112C29.9341 22.9173 29.883 22.8308 29.8166 22.7568C29.7501 22.6827 29.6696 22.6227 29.5797 22.5801C29.4899 22.5375 29.3924 22.5132 29.293 22.5086C29.1937 22.504 29.0944 22.5193 29.001 22.5534C28.9075 22.5876 28.8219 22.64 28.7489 22.7076L21.2489 29.4576C21.1706 29.5279 21.1079 29.6139 21.065 29.7101C21.0222 29.8062 21 29.9103 21 30.0156C21 30.1208 21.0222 30.2249 21.065 30.3211C21.1079 30.4172 21.1706 30.5032 21.2489 30.5736L28.7489 37.3236C28.8974 37.4528 29.0908 37.5185 29.2873 37.5064C29.4839 37.4943 29.6678 37.4054 29.7993 37.2589C29.9308 37.1124 29.9995 36.92 29.9904 36.7233C29.9814 36.5266 29.8953 36.3414 29.7509 36.2076L23.7044 30.7656H38.2499Z" fill="#171717"/>
<rect x="0.5" y="0.5" width="59" height="59" rx="29.5" stroke="#171717"/>
</svg>
