<svg width="40" height="40" viewBox="0 0 40 40" fill="none" xmlns="http://www.w3.org/2000/svg">
<rect x="0.5" y="0.5" width="39" height="39" rx="19.5" fill="white"/>
<path d="M13.244 19.428H18.284V20.618H13.244V19.428ZM13.37 23.782H19.082V25H11.97V15.2H18.886V16.418H13.37V23.782ZM25.1149 17.51C25.7216 17.51 26.2536 17.6267 26.7109 17.86C27.1776 18.0933 27.5416 18.448 27.8029 18.924C28.0642 19.4 28.1949 20.002 28.1949 20.73V25H26.8509V20.884C26.8509 20.1653 26.6736 19.624 26.3189 19.26C25.9736 18.896 25.4836 18.714 24.8489 18.714C24.3729 18.714 23.9576 18.8073 23.6029 18.994C23.2482 19.1807 22.9729 19.456 22.7769 19.82C22.5902 20.184 22.4969 20.6367 22.4969 21.178V25H21.1529V17.58H22.4409V19.582L22.2309 19.05C22.4736 18.5647 22.8469 18.1867 23.3509 17.916C23.8549 17.6453 24.4429 17.51 25.1149 17.51Z" fill="#171717"/>
<rect x="0.5" y="0.5" width="39" height="39" rx="19.5" stroke="#171717"/>
</svg>
