<svg width="40" height="40" viewBox="0 0 40 40" fill="none" xmlns="http://www.w3.org/2000/svg">
<rect x="0.5" y="0.5" width="39" height="39" rx="19.5" fill="white"/>
<path d="M12.526 25V15.2H16.348C17.2067 15.2 17.9393 15.3353 18.546 15.606C19.1527 15.8767 19.6193 16.2687 19.946 16.782C20.2727 17.2953 20.436 17.9067 20.436 18.616C20.436 19.3253 20.2727 19.9367 19.946 20.45C19.6193 20.954 19.1527 21.346 18.546 21.626C17.9393 21.8967 17.2067 22.032 16.348 22.032H13.296L13.926 21.374V25H12.526ZM13.926 21.514L13.296 20.814H16.306C17.202 20.814 17.8787 20.6227 18.336 20.24C18.8027 19.8573 19.036 19.316 19.036 18.616C19.036 17.916 18.8027 17.3747 18.336 16.992C17.8787 16.6093 17.202 16.418 16.306 16.418H13.296L13.926 15.718V21.514ZM22.5784 27.8C22.2238 27.8 21.8784 27.7393 21.5424 27.618C21.2064 27.506 20.9171 27.338 20.6744 27.114L21.2484 26.106C21.4351 26.2833 21.6404 26.4187 21.8644 26.512C22.0884 26.6053 22.3264 26.652 22.5784 26.652C22.9051 26.652 23.1758 26.568 23.3904 26.4C23.6051 26.232 23.8058 25.9333 23.9924 25.504L24.4544 24.482L24.5944 24.314L27.5064 17.58H28.8224L25.2244 25.742C25.0098 26.2647 24.7671 26.6753 24.4964 26.974C24.2351 27.2727 23.9458 27.4827 23.6284 27.604C23.3111 27.7347 22.9611 27.8 22.5784 27.8ZM24.3424 25.238L20.9544 17.58H22.3544L25.2384 24.188L24.3424 25.238Z" fill="#171717"/>
<rect x="0.5" y="0.5" width="39" height="39" rx="19.5" stroke="#171717"/>
</svg>
